<?xml version="1.0" encoding="UTF-8" standalone="no"?>
<!-- Created with Inkscape (http://www.inkscape.org/) -->

<svg
   width="141.00996mm"
   height="38.340603mm"
   viewBox="0 0 141.00996 38.340603"
   version="1.1"
   id="svg5"
   sodipodi:docname="martiancats.svg"
   inkscape:version="1.2.1 (9c6d41e410, 2022-07-14)"
   xmlns:inkscape="http://www.inkscape.org/namespaces/inkscape"
   xmlns:sodipodi="http://sodipodi.sourceforge.net/DTD/sodipodi-0.dtd"
   xmlns="http://www.w3.org/2000/svg"
   xmlns:svg="http://www.w3.org/2000/svg">
  <sodipodi:namedview
     id="namedview7"
     pagecolor="#ffffff"
     bordercolor="#000000"
     borderopacity="0.25"
     inkscape:showpageshadow="2"
     inkscape:pageopacity="0.0"
     inkscape:pagecheckerboard="0"
     inkscape:deskcolor="#d1d1d1"
     inkscape:document-units="mm"
     showgrid="false"
     inkscape:zoom="0.66142459"
     inkscape:cx="198.05735"
     inkscape:cy="58.963638"
     inkscape:window-width="1366"
     inkscape:window-height="705"
     inkscape:window-x="-8"
     inkscape:window-y="-8"
     inkscape:window-maximized="1"
     inkscape:current-layer="layer1" />
  <defs
     id="defs2" />
  <g
     inkscape:label="Camada 1"
     inkscape:groupmode="layer"
     id="layer1"
     transform="translate(-29.878754,-46.838694)">
    <g
       id="g2183"
       style="fill:#c83737;fill-opacity:1"
       inkscape:export-filename="martiancats.svg"
       inkscape:export-xdpi="194.53941"
       inkscape:export-ydpi="194.53941">
      <g
         id="g2070"
         transform="matrix(0.79144667,0,0,0.79144667,6.2313136,17.764426)"
         style="fill:#c83737;fill-opacity:1;stroke-width:1.26351"
         inkscape:export-filename="favicon.png"
         inkscape:export-xdpi="194.53941"
         inkscape:export-ydpi="194.53941">
        <path
           id="path1920"
           style="fill:#c83737;fill-opacity:1;stroke:none;stroke-width:2.79488;stroke-linecap:round;stroke-linejoin:round;stroke-miterlimit:2000;stroke-dasharray:none;stroke-opacity:1"
           d="m 29.972091,50.21708 6.864251,15.477325 A 0.48313379,0.48313379 168.92086 0 0 37.755555,65.51441 C 38.12303,60.86426 40.01825,56.462663 43.143904,53.000119 A 1.1598325,1.1598325 73.30588 0 0 42.565799,51.072477 L 31.1865,48.712078 a 1.0869762,1.0869762 128.90058 0 0 -1.214409,1.505002 z m 42.899937,-13.189066 -8.488683,7.923133 a 1.1593788,1.1593788 75.377295 0 0 0.5079,1.946696 c 4.463257,1.330649 8.365618,4.098745 11.096715,7.871329 a 0.48443646,0.48443646 159.7291 0 0 0.880897,-0.325345 L 74.692008,37.682776 a 1.0872006,1.0872006 19.786866 0 0 -1.81998,-0.654762 z"
           sodipodi:nodetypes="cccccccc" />
        <path
           id="path340"
           style="fill:#c83737;fill-opacity:1;stroke-width:4.31108;stroke-linecap:round;stroke-linejoin:round;stroke-miterlimit:2000"
           d="M 54.072161,49.831032 A 17.996166,17.996166 0 0 0 41.491902,71.954864 17.996166,17.996166 0 0 0 63.615735,84.535123 17.996166,17.996166 0 0 0 76.195994,62.411291 17.996166,17.996166 0 0 0 54.072161,49.831032 Z m -8.533254,7.650585 a 0.98937089,0.98937089 0 0 1 0.276684,-0.05212 c 2.862298,-0.123964 5.603512,-0.484774 8.232134,-1.067643 a 0.98937089,0.98937089 0 0 1 1.179998,0.751827 0.98937089,0.98937089 0 0 1 -0.751826,1.179998 c -2.74409,0.60847 -5.601408,0.984223 -8.57492,1.113004 a 0.98937089,0.98937089 0 0 1 -1.032141,-0.946384 0.98937089,0.98937089 0 0 1 0.67007,-0.978688 z m 20.027684,-5.375259 a 0.98937089,0.98937089 0 0 1 1.072724,0.504694 0.98937089,0.98937089 0 0 1 -0.408007,1.33715 c -2.557995,1.362332 -5.235698,2.489062 -8.038683,3.359344 A 0.98937089,0.98937089 0 0 1 56.953279,56.655462 0.98937089,0.98937089 0 0 1 57.6063,55.417776 c 2.682487,-0.832866 5.244039,-1.910472 7.695497,-3.216067 a 0.98937089,0.98937089 0 0 1 0.264794,-0.09535 z M 42.903544,63.484404 a 0.98937089,0.98937089 0 0 1 0.220933,-0.01426 c 8.12322,0.38732 15.077179,-1.150696 21.271844,-4.037952 a 0.98937089,0.98937089 0 0 1 1.314551,0.477506 0.98937089,0.98937089 0 0 1 -0.47929,1.315042 c -6.466214,3.013827 -13.774305,4.622559 -22.201531,4.220745 A 0.98937089,0.98937089 0 0 1 42.08915,64.410724 0.98937089,0.98937089 0 0 1 42.903544,63.4844 Z m 5.032185,4.449403 a 0.98937089,0.98937089 0 0 1 0.191626,-0.03017 c 6.791391,-0.395442 13.220149,-2.212218 19.36369,-5.263619 a 0.98937089,0.98937089 0 0 1 1.325471,0.445738 0.98937089,0.98937089 0 0 1 -0.447074,1.325839 c -6.356211,3.157026 -13.055646,5.055911 -20.126455,5.467626 a 0.98937089,0.98937089 0 0 1 -1.045768,-0.929693 0.98937089,0.98937089 0 0 1 0.73851,-1.015725 z M 74.637106,62.88457 a 0.98937089,0.98937089 0 0 1 1.134468,0.406691 0.98937089,0.98937089 0 0 1 -0.296042,1.367726 c -8.800847,5.664266 -18.380729,8.956647 -28.905576,9.007577 a 0.98937089,0.98937089 0 0 1 -0.993663,-0.984295 0.98937089,0.98937089 0 0 1 0.983805,-0.995445 c 10.119452,-0.04897 19.297314,-3.191243 27.843304,-8.691481 a 0.98937089,0.98937089 0 0 1 0.233704,-0.110774 z m 0.23149,5.461792 a 0.98937089,0.98937089 0 0 1 1.007715,0.439151 0.98937089,0.98937089 0 0 1 -0.296407,1.366389 c -5.742677,3.692054 -11.796725,6.157771 -18.144459,7.352338 a 0.98937089,0.98937089 0 0 1 -1.153967,-0.789668 0.98937089,0.98937089 0 0 1 0.790114,-1.15409 c 6.086512,-1.145408 11.88967,-3.506158 17.437839,-7.073161 a 0.98937089,0.98937089 0 0 1 0.359164,-0.140963 z m -28.129402,8.029435 a 0.98937089,0.98937089 0 0 1 0.256747,-0.02698 c 2.170318,0.05796 4.30592,-0.02514 6.407685,-0.249016 a 0.98937089,0.98937089 0 0 1 1.08965,0.878312 0.98937089,0.98937089 0 0 1 -0.880585,1.088356 c -2.190542,0.233334 -4.413797,0.319418 -6.669538,0.259179 a 0.98937089,0.98937089 0 0 1 -0.961737,-1.014647 0.98937089,0.98937089 0 0 1 0.757778,-0.935206 z m 10.07904,5.26835 a 0.98937089,0.98937089 0 0 1 0.152081,-0.03276 c 3.164965,-0.425874 6.135342,-1.227832 8.958032,-2.334958 a 0.98937089,0.98937089 0 0 1 1.282693,0.558661 0.98937089,0.98937089 0 0 1 -0.560443,1.283182 c -2.9595,1.160791 -6.087163,2.007215 -9.415926,2.455127 a 0.98937089,0.98937089 0 0 1 -1.11383,-0.847689 0.98937089,0.98937089 0 0 1 0.697381,-1.081607 z" />
      </g>
      <text
         xml:space="preserve"
         style="font-size:17.7664px;line-height:1.7;font-family:Arial;-inkscape-font-specification:Arial;fill:#c83737;fill-opacity:1;stroke:none;stroke-width:2.212;stroke-linecap:round;stroke-linejoin:round;stroke-miterlimit:2000;stroke-dasharray:none;stroke-opacity:1"
         x="72.158562"
         y="74.458611"
         id="text2126"><tspan
           sodipodi:role="line"
           id="tspan2124"
           style="font-style:normal;font-variant:normal;font-weight:bold;font-stretch:normal;font-family:Leelawadee;-inkscape-font-specification:'Leelawadee Bold';fill:#c83737;fill-opacity:1;stroke-width:2.212"
           x="72.158562"
           y="74.458611">martiancats</tspan></text>
    </g>
  </g>
</svg>
