<?xml version="1.0" encoding="UTF-8" standalone="no"?>
<!-- Created with Inkscape (http://www.inkscape.org/) -->

<svg
   width="99.999931mm"
   height="100.00063mm"
   viewBox="0 0 99.999931 100.00063"
   version="1.1"
   id="svg5"
   xmlns="http://www.w3.org/2000/svg"
   xmlns:svg="http://www.w3.org/2000/svg">
  <defs
     id="defs2" />
  <g
     id="layer1"
     transform="translate(-53.177213,-54.308253)">
    <path
       id="rect844"
       style="fill:#ffffff;fill-opacity:1;stroke:none;stroke-width:0.412001;stroke-linecap:round;stroke-linejoin:round;stroke-miterlimit:2000;stroke-dasharray:none;stroke-opacity:1"
       d="M 87.264409,54.871803 C 82.32219,53.09802 76.91612,55.649172 75.142336,60.591391 L 53.740901,120.22125 c -1.773776,4.94219 0.776209,10.34882 5.718427,12.12261 l 59.629862,21.40144 c 4.94224,1.77378 10.34916,-0.77707 12.12293,-5.71927 l 21.40143,-59.629862 c 1.77379,-4.942217 -0.77705,-10.349142 -5.71928,-12.122929 z m 5.063865,11.334805 A 7.8677268,7.8677268 0 0 1 97.074969,76.2695 7.8677268,7.8677268 0 0 1 87.012627,81.017359 7.8677268,7.8677268 0 0 1 82.265076,70.954161 7.8677268,7.8677268 0 0 1 92.328274,66.206608 Z M 107.00838,97.32493 a 7.8677268,7.8677268 0 0 1 4.74755,10.06318 7.8677268,7.8677268 0 0 1 -10.06321,4.74757 7.8677268,7.8677268 0 0 1 -4.747549,-10.06321 7.8677268,7.8677268 0 0 1 10.063209,-4.74754 z m 14.90068,31.58289 a 7.8677268,7.8677268 0 0 1 4.74754,10.06318 7.8677268,7.8677268 0 0 1 -10.06319,4.74755 7.8677268,7.8677268 0 0 1 -4.74756,-10.0632 7.8677268,7.8677268 0 0 1 10.06321,-4.74753 z" />
  </g>
</svg>
