<?xml version="1.0" encoding="UTF-8" standalone="no"?>
<!-- Created with Inkscape (http://www.inkscape.org/) -->

<svg
   width="99.999985mm"
   height="100mm"
   viewBox="0 0 99.999985 100"
   version="1.1"
   id="svg5"
   xmlns="http://www.w3.org/2000/svg"
   xmlns:svg="http://www.w3.org/2000/svg">
  <defs
     id="defs2" />
  <g
     id="layer1"
     transform="translate(-53.177144,-54.308562)">
    <path
       id="path1919"
       style="fill:#ffffff;fill-opacity:1;stroke:none;stroke-width:3.75621;stroke-linecap:round;stroke-linejoin:round;stroke-miterlimit:2000;stroke-dasharray:none;stroke-opacity:1"
       class="UnoptimicedTransforms"
       d="m 97.520146,65.022904 c -2.193836,0 -3.959965,1.76613 -3.959965,3.959965 v 8.67389 a 27.785715,27.785715 0 0 0 -7.985043,4.567163 L 78.100659,77.908423 C 76.200742,76.811505 73.788088,77.45803 72.69117,79.357947 l -5.657536,9.798368 c -1.096916,1.899918 -0.450393,4.312572 1.449524,5.409489 l 7.360791,4.24987 a 27.785715,27.785715 0 0 0 -0.452685,4.892726 27.785715,27.785715 0 0 0 0.378788,4.50153 l -7.286894,4.20698 c -1.899917,1.09692 -2.54644,3.50957 -1.449524,5.40949 l 5.657536,9.79837 c 1.096918,1.89992 3.509572,2.54643 5.409489,1.44952 l 7.172689,-4.14083 a 27.785715,27.785715 0 0 0 8.286833,4.8271 v 8.23929 c 0,2.19383 1.766129,3.95996 3.959965,3.95996 h 11.314034 c 2.19384,0 3.95997,-1.76613 3.95997,-3.95996 v -8.23929 a 27.785715,27.785715 0 0 0 8.28683,-4.8271 l 7.17269,4.14083 c 1.89992,1.09691 4.31257,0.4504 5.40949,-1.44952 l 5.65753,-9.79837 c 1.09692,-1.89992 0.4504,-4.31257 -1.44952,-5.40949 l -7.28689,-4.20698 a 27.785715,27.785715 0 0 0 0.37879,-4.50153 27.785715,27.785715 0 0 0 -0.43719,-4.902028 l 7.34529,-4.240568 c 1.89992,-1.096917 2.54644,-3.509571 1.44952,-5.409489 l -5.65753,-9.798368 c -1.09692,-1.899917 -3.50957,-2.546442 -5.40949,-1.449524 l -7.46621,4.310848 a 27.785715,27.785715 0 0 0 -7.99331,-4.576982 v -8.65942 c 0,-2.193835 -1.76613,-3.959965 -3.95997,-3.959965 z m 1.984891,17.526062 8.670273,6.094719 -8.670273,6.094202 v -2.618962 c -2.819321,0.907413 -5.201655,2.828397 -6.685896,5.391402 -3.302454,5.720603 -1.342358,13.035183 4.378027,16.338023 l -3.085083,5.34334 c -8.671479,-5.00643 -11.642295,-16.09501 -6.635771,-24.766446 2.589164,-4.474916 6.965402,-7.631248 12.028723,-8.675956 z m 12.737203,5.240507 c 8.67148,5.006437 11.6423,16.094507 6.63578,24.765927 -2.58919,4.47036 -6.96221,7.62392 -12.02149,8.66873 v 3.19515 l -8.670792,-6.0942 8.670792,-6.09472 v 2.61793 c 2.81428,-0.90541 5.19345,-2.82127 6.67866,-5.37745 3.30315,-5.7207 1.34325,-13.036038 -4.37751,-16.339057 z"
       transform="matrix(1.3632332,0,0,1.2997664,-37.477397,-30.206021)" />
  </g>
</svg>
