<?xml version="1.0" encoding="UTF-8" standalone="no"?>
<!-- Created with Inkscape (http://www.inkscape.org/) -->

<svg
   width="99.999794mm"
   height="99.999611mm"
   viewBox="0 0 99.999794 99.999611"
   version="1.1"
   id="svg5"
   xmlns="http://www.w3.org/2000/svg"
   xmlns:svg="http://www.w3.org/2000/svg">
  <defs
     id="defs2" />
  <g
     id="layer1"
     transform="translate(-53.17727,-54.308829)">
    <path
       id="rect5087"
       style="fill:#ffffff;fill-opacity:1;stroke:none;stroke-width:7.16492;stroke-linecap:round;stroke-linejoin:round;stroke-miterlimit:2000;stroke-dasharray:none;stroke-dashoffset:9.44882;stroke-opacity:1"
       d="m 122.71039,9.5542446 c -1.14537,1.1453704 -1.85195,2.7295294 -1.85195,4.4848124 l 3e-5,45.866074 c 0,3.510567 2.82616,6.336731 6.33673,6.336731 l 45.86608,3.2e-5 c 3.51056,0 6.33676,-2.8262 6.33676,-6.336767 l -3e-5,-45.866074 c 0,-3.510567 -2.82616,-6.3367311 -6.33673,-6.3367311 l -45.86607,-3.16e-5 c -1.75529,0 -3.33945,0.7065841 -4.48482,1.8519543 z m 65.10344,15.4957544 c -0.12522,0.114997 -0.1952,0.308999 -0.19786,0.584239 l -0.0628,6.4599 c -0.0107,1.100958 1.06702,3.073293 2.4163,4.422581 l 0.0157,0.01573 c 1.34928,1.349288 2.44419,1.549543 2.45486,0.448584 l 0.0627,-6.4599 c 0.0107,-1.100958 -1.06701,-3.073292 -2.4163,-4.422581 l -0.0157,-0.01573 c -1.01197,-1.011967 -1.88133,-1.377816 -2.257,-1.032824 z m -44.36988,59.01673 c 0.78826,2.601993 3.19651,4.486469 6.06259,4.486469 l 45.86607,3.1e-5 c 3.51056,-5e-6 6.33676,-2.826208 6.33677,-6.336767 l -3e-5,-45.866073 c 0,-2.866078 -1.88448,-5.274332 -4.48647,-6.062585 l -1.6e-4,45.155189 c 1e-5,4.777596 -3.84598,8.623583 -8.62358,8.62358 z m 66.45594,-36.930672 c -0.12522,0.114997 -0.19583,0.30837 -0.19849,0.583609 l -0.0628,6.4599 c -0.0107,1.100959 1.06701,3.073293 2.4163,4.422581 l 0.0157,0.01573 c 1.34929,1.349288 2.4442,1.549543 2.45486,0.448585 l 0.0628,-6.459901 c 0.0107,-1.100958 -1.06702,-3.073292 -2.4163,-4.422581 l -0.0157,-0.01573 c -1.01196,-1.011967 -1.88069,-1.377186 -2.25636,-1.032194 z m -44.14397,59.242633 c 0.78826,2.602 3.19651,4.48648 6.06258,4.48647 l 45.86608,3e-5 c 3.51057,1e-5 6.33677,-2.82619 6.33676,-6.33676 l -3e-5,-45.866076 c 1e-5,-2.866075 -1.88449,-5.274344 -4.48647,-6.062585 l -1.5e-4,45.155189 c 0,4.777592 -3.84599,8.623582 -8.62358,8.623582 z m 65.58503,-37.801576 c -0.12522,0.114997 -0.1952,0.308999 -0.19787,0.584239 l -0.0628,6.4599 c -0.0107,1.100958 1.06702,3.073293 2.41631,4.422581 l 0.0157,0.01573 c 1.34929,1.349288 2.44357,1.548914 2.45423,0.447955 l 0.0628,-6.4599 c 0.0107,-1.100958 -1.06702,-3.073293 -2.41631,-4.422581 l -0.0157,-0.01573 c -1.01196,-1.011966 -1.88069,-1.377186 -2.25636,-1.032194 z m -43.2737,60.112916 c 0.78827,2.602 3.19651,4.48647 6.06259,4.48647 l 45.86607,3e-5 c 3.51057,10e-6 6.33677,-2.8262 6.33677,-6.33677 l -3e-5,-45.866071 c 0,-2.866074 -1.88449,-5.274344 -4.48647,-6.062584 l -1.6e-4,45.155185 c 1e-5,4.7776 -3.84598,8.62359 -8.62358,8.62358 z"
       transform="matrix(0.91181227,0.41060733,-0.91181227,0.41060733,0,0)" />
  </g>
</svg>
