<?xml version="1.0" encoding="UTF-8" standalone="no"?>
<!-- Created with Inkscape (http://www.inkscape.org/) -->

<svg
   width="99.999985mm"
   height="100.00002mm"
   viewBox="0 0 99.999985 100.00002"
   version="1.1"
   id="svg5"
   xmlns="http://www.w3.org/2000/svg"
   xmlns:svg="http://www.w3.org/2000/svg">
  <defs
     id="defs2" />
  <g
     id="layer1"
     transform="translate(-53.177141,-54.308558)">
    <path
       id="rect1041"
       style="fill:#ffffff;stroke-width:0.412001;stroke-linecap:round;stroke-linejoin:round;stroke-miterlimit:2000"
       d="m 69.7672,90.216905 h 66.66691 c 4.96709,0 8.96588,3.144337 8.96588,7.050084 v 23.788681 l 7.62419,26.20282 c 1.10784,3.80736 -3.99878,7.05009 -8.96585,7.05009 H 62.142996 c -4.967081,0 -8.965856,-3.14434 -8.965856,-7.05009 l 7.624204,-26.20282 V 97.266989 c 0,-3.905747 3.998774,-7.050084 8.965856,-7.050084 z" />
    <path
       style="color:#000000;mix-blend-mode:luminosity;fill:#ffffff;stroke-width:1;stroke-linecap:round;stroke-linejoin:round;stroke-miterlimit:2000;-inkscape-stroke:none"
       d="m 103.10149,54.308561 c -15.829523,0 -24.430517,7.804773 -28.148934,15.115369 -3.718419,7.310596 -3.435958,14.460391 -3.435958,14.460391 a 3.6019855,2.8323338 0 0 0 3.68922,2.759313 3.6019855,2.8323338 0 0 0 3.511937,-2.900929 c 0,0 -0.14114,-6.188621 2.923798,-12.214439 3.064937,-6.025821 8.455358,-11.555037 21.459937,-11.555037 13.00461,0 18.39504,5.529218 21.45997,11.555037 3.06493,6.025818 2.92099,12.214439 2.92099,12.214439 a 3.6019855,2.8323338 0 0 0 3.51193,2.900929 3.6019855,2.8323338 0 0 0 3.69203,-2.759313 c 0,0 0.28246,-7.149794 -3.43596,-14.460391 -3.71841,-7.310597 -12.3194,-15.115369 -28.14896,-15.115369 z"
       id="path1611" />
  </g>
</svg>
