<?xml version="1.0" encoding="UTF-8" standalone="no"?>
<!-- Created with Inkscape (http://www.inkscape.org/) -->

<svg
   width="377.953"
   height="377.953"
   viewBox="0 0 100.00008 100.00006"
   version="1.1"
   id="svg5"
   xml:space="preserve"
   xmlns="http://www.w3.org/2000/svg"
   xmlns:svg="http://www.w3.org/2000/svg"><defs
     id="defs2" /><g
     id="layer1"
     transform="translate(-53.177118,-74.10814)"><g
       id="g239"
       transform="translate(-1.832076e-5,19.799808)"><path
         id="rect399"
         style="fill:#ffffff;stroke-width:6.20001;stroke-linecap:round;stroke-linejoin:round;stroke-miterlimit:2000;stroke-dashoffset:9.44882"
         d="m 60.248521,74.108139 c -3.917568,0 -7.071403,3.153835 -7.071403,7.071403 v 46.257638 c 0,3.91757 3.153835,7.07141 7.071403,7.07141 h 85.857289 c 3.91757,0 7.07141,-3.15384 7.07141,-7.07141 V 81.179542 c 0,-3.917568 -3.15384,-7.071403 -7.07141,-7.071403 z m 3.219958,4.622974 h 79.417371 c 3.3179,0 5.98879,2.670883 5.98879,5.988781 v 39.176936 c 0,3.3179 -2.67089,5.98878 -5.98879,5.98878 H 63.468479 c -3.317898,0 -5.988781,-2.67088 -5.988781,-5.98878 V 84.719894 c 0,-3.317898 2.670883,-5.988781 5.988781,-5.988781 z" /><path
         style="fill:none;stroke:#ffffff;stroke-width:6.20001;stroke-linecap:round;stroke-linejoin:round;stroke-miterlimit:2000;stroke-dashoffset:9.44882;stroke-opacity:1"
         d="m 103.17717,104.30836 c 0,0 -39.534338,-19.451474 -39.534338,-19.451474"
         id="path505" /><path
         style="fill:none;stroke:#ffffff;stroke-width:6.20001;stroke-linecap:round;stroke-linejoin:round;stroke-miterlimit:2000;stroke-dashoffset:9.44882;stroke-opacity:1"
         d="m 103.17717,104.30836 c 0,0 39.53434,-19.451474 39.53434,-19.451474"
         id="path1949" /></g></g></svg>
