<?xml version="1.0" encoding="UTF-8" standalone="no"?>
<!-- Created with Inkscape (http://www.inkscape.org/) -->

<svg
   width="86.719559mm"
   height="100mm"
   viewBox="0 0 86.719559 100"
   version="1.1"
   id="svg5"
   xmlns="http://www.w3.org/2000/svg"
   xmlns:svg="http://www.w3.org/2000/svg">
  <defs
     id="defs2" />
  <g
     id="layer1"
     transform="translate(-59.817369,-54.308573)">
    <path
       id="path4922"
       style="color:#000000;fill:#ffffff;stroke-width:1;stroke-linecap:round;stroke-linejoin:round;stroke-miterlimit:2000;stroke-dashoffset:9.44882"
       d="m 105.8726,54.308571 4.00492,9.823588 -7.55958,27.722981 c -9.661052,6.341909 -22.224895,14.97052 -31.176176,22.7339 -4.603062,3.99219 -8.2382,7.61183 -10.134529,11.1384 -0.948163,1.76327 -1.587865,3.7309 -0.904231,5.78195 0.683635,2.05101 2.660662,3.34269 4.810414,3.88914 l 73.281742,18.62735 c 2.14973,0.54645 4.52924,0.36218 6.1703,-1.09794 1.64108,-1.46014 2.08603,-3.47726 2.16012,-5.46272 0.14811,-3.97095 -1.1679,-8.84909 -3.13813,-14.51215 -3.83136,-11.0126 -10.36571,-24.49572 -15.53979,-34.608573 l 7.56004,-27.724743 8.49546,-6.644237 z m 12.48827,39.968576 c 1.66375,0.436475 3.2487,1.291042 4.34646,1.976279 l -0.46896,1.719713 c -0.17839,0.65477 -0.10689,1.348312 0.20095,1.947188 5.18575,10.092503 11.95571,24.079843 15.71375,34.881633 1.87899,5.40088 2.93623,10.10763 2.84555,12.53791 -0.0386,1.03547 -0.28006,1.46696 -0.30554,1.53238 -0.0601,0.0179 -0.28988,0.0408 -1.05098,-0.15272 L 66.36038,130.09216 c -0.762689,-0.19386 -0.951369,-0.32306 -0.994389,-0.36721 0.01159,-0.0688 0.02291,-0.55897 0.517389,-1.47852 1.160577,-2.15832 4.479482,-5.75269 8.869449,-9.56008 8.779948,-7.61478 21.806229,-16.56987 31.466861,-22.888872 0.57331,-0.374904 0.98932,-0.944515 1.16798,-1.599225 1.56556,5.927637 6.17365,-0.53598 9.66429,-0.166341 0.43633,0.04621 0.87513,0.13144 1.30891,0.245237 z m -0.10857,3.984517 c -0.68967,-0.175285 -1.40023,0.238119 -1.5871,0.923375 -0.18687,0.685278 0.22073,1.382921 0.91039,1.558261 0.68964,0.17527 1.40024,-0.23813 1.58711,-0.923368 0.18685,-0.685269 -0.22075,-1.382898 -0.91036,-1.558236 z m -8.89995,1.398051 c -1.61726,-0.411162 -3.2836,0.558315 -3.72172,2.165325 -0.43799,1.60688 0.51787,3.24258 2.13499,3.65356 1.61713,0.41112 3.28328,-0.55809 3.72164,-2.16487 0.43826,-1.60696 -0.5176,-3.24298 -2.13491,-3.654015 z m 7.98767,10.174235 c -3.24118,-0.82393 -6.60758,1.21775 -7.51894,4.56019 -0.91145,3.34237 0.9772,6.71983 4.21841,7.54363 3.24105,0.82365 6.60712,-1.21804 7.51846,-4.56028 0.91143,-3.3422 -0.97697,-6.71951 -4.21793,-7.54354 z" />
  </g>
</svg>
