<?xml version="1.0" encoding="UTF-8" standalone="no"?>
<!-- Created with Inkscape (http://www.inkscape.org/) -->

<svg
   width="99.999069mm"
   height="99.99958mm"
   viewBox="0 0 99.999069 99.99958"
   version="1.1"
   id="svg5"
   xmlns="http://www.w3.org/2000/svg"
   xmlns:svg="http://www.w3.org/2000/svg">
  <defs
     id="defs2" />
  <g
     id="layer1"
     transform="translate(-53.177633,-54.308829)">
    <path
       id="path4651"
       style="color:#000000;fill:#ffffff;stroke-linecap:round;stroke-linejoin:round;stroke-miterlimit:2000;stroke-dashoffset:9.44882"
       d="m 55.677738,54.30883 a 2.50025,2.50025 0 0 0 -2.500105,2.499589 V 79.76154 a 2.50025,2.50025 0 0 0 2.500105,2.500106 h 13.634827 v 22.046714 a 2.500245,2.500245 0 0 0 2.500106,2.50011 h 28.864909 v 19.54712 H 87.041199 a 2.50025,2.50025 0 0 0 -2.500106,2.50011 v 22.95312 a 2.50025,2.50025 0 0 0 2.500106,2.49959 h 32.271411 a 2.50025,2.50025 0 0 0 2.50011,-2.49959 V 128.8557 a 2.50025,2.50025 0 0 0 -2.50011,-2.50011 h -13.63482 v -19.54712 h 28.86335 a 2.500245,2.500245 0 0 0 2.50011,-2.50011 V 82.261646 h 13.63534 A 2.50025,2.50025 0 0 0 153.1767,79.76154 V 56.808419 a 2.50025,2.50025 0 0 0 -2.50011,-2.499589 h -32.26935 a 2.50025,2.50025 0 0 0 -2.5001,2.499589 V 79.76154 a 2.50025,2.50025 0 0 0 2.5001,2.500106 h 13.6338 V 101.80877 H 74.31226 V 82.261646 H 87.947087 A 2.50025,2.50025 0 0 0 90.447192,79.76154 V 56.808419 A 2.50025,2.50025 0 0 0 87.947087,54.30883 Z m -5.16e-4,2.499589 H 87.947603 V 79.76154 H 55.677222 Z m 62.729508,0 h 32.27038 V 79.76154 H 118.40673 Z M 58.177844,59.308525 V 77.261951 H 85.447498 V 59.308525 Z m 62.729506,0 V 77.261951 H 148.177 V 59.308525 Z M 89.540788,131.35529 h 27.271722 v 17.95343 H 89.540788 Z" />
  </g>
</svg>
