<?xml version="1.0" encoding="UTF-8" standalone="no"?>
<!-- Created with Inkscape (http://www.inkscape.org/) -->

<svg
   width="100mm"
   height="100mm"
   viewBox="0 0 100 100"
   version="1.1"
   id="svg5"
   xml:space="preserve"
   xmlns="http://www.w3.org/2000/svg"
   xmlns:svg="http://www.w3.org/2000/svg"><defs
     id="defs2" /><g
     id="layer1"
     transform="translate(-53.17715,-54.308314)"><path
       id="path2251"
       style="fill:#ffffff;fill-opacity:1;stroke:none;stroke-width:6.20001;stroke-linecap:butt;stroke-linejoin:round;stroke-miterlimit:2000;stroke-dasharray:none;stroke-dashoffset:9.44882;stroke-opacity:1"
       d="m 103.17717,54.308314 a 30.689999,30.689999 0 0 0 -30.69012,30.690116 30.689999,30.689999 0 0 0 4.365625,15.74891 l -0.01189,0.007 26.336385,53.55384 26.33636,-53.55384 -0.0119,-0.007 a 30.689999,30.689999 0 0 0 4.36562,-15.74891 30.689999,30.689999 0 0 0 -30.69011,-30.690116 z m 0,14.142806 A 16.547142,16.547142 0 0 1 119.72448,84.99843 16.547142,16.547142 0 0 1 103.17717,101.54522 16.547142,16.547142 0 0 1 86.629856,84.99843 16.547142,16.547142 0 0 1 103.17717,68.45112 Z" /></g></svg>
