<?xml version="1.0" encoding="UTF-8" standalone="no"?>
<!-- Created with Inkscape (http://www.inkscape.org/) -->

<svg
   width="100.0001mm"
   height="100.00009mm"
   viewBox="0 0 100.0001 100.00009"
   version="1.1"
   id="svg5"
   xml:space="preserve"
   xmlns:inkscape="http://www.inkscape.org/namespaces/inkscape"
   xmlns:sodipodi="http://sodipodi.sourceforge.net/DTD/sodipodi-0.dtd"
   xmlns="http://www.w3.org/2000/svg"
   xmlns:svg="http://www.w3.org/2000/svg"><sodipodi:namedview
     id="namedview7"
     pagecolor="#ffffff"
     bordercolor="#000000"
     borderopacity="0.25"
     inkscape:showpageshadow="2"
     inkscape:pageopacity="0.0"
     inkscape:pagecheckerboard="0"
     inkscape:deskcolor="#d1d1d1"
     inkscape:document-units="mm"
     showgrid="false"
     inkscape:zoom="0.66142459"
     inkscape:cx="364.36505"
     inkscape:cy="340.17483"
     inkscape:window-width="1366"
     inkscape:window-height="705"
     inkscape:window-x="-8"
     inkscape:window-y="-8"
     inkscape:window-maximized="1"
     inkscape:current-layer="layer1" /><defs
     id="defs2" /><g
     inkscape:label="Camada 1"
     inkscape:groupmode="layer"
     id="layer1"
     transform="translate(-53.177118,-54.308314)"><path
       id="path1697"
       style="fill:#ffffff;fill-opacity:1;stroke:none;stroke-width:5;stroke-linecap:round;stroke-linejoin:round;stroke-miterlimit:2000;stroke-dasharray:none;stroke-opacity:1"
       d="m 92.428467,54.308313 c -24.89122,0 -39.251351,3.96043 -39.251351,38.120154 0,29.634053 32.74593,61.879943 50.000044,61.879943 22.91126,0 18.45159,-15.14274 18.45159,-15.14274 -3.98968,-11.65811 -10.40547,-24.96954 5.65702,-18.66863 9.47203,3.7156 25.89144,16.62285 25.89144,-6.50555 0,-26.871193 -35.69728,-59.683177 -60.748743,-59.683177 z m 11.684043,10.378178 a 12.383224,7.6363017 32.512328 0 1 0.68161,0.0031 12.383224,7.6363017 32.512328 0 1 6.28799,1.658814 12.383224,7.6363017 32.512328 0 1 9.0072,12.894303 12.383224,7.6363017 32.512328 0 1 -13.06328,2.295984 12.383224,7.6363017 32.512328 0 1 -9.007207,-12.893786 12.383224,7.6363017 32.512328 0 1 6.093687,-3.958415 z m -29.982668,3.394108 a 12.383224,7.6363017 32.512328 0 1 0.681612,0.0031 12.383224,7.6363017 32.512328 0 1 6.287989,1.65933 12.383224,7.6363017 32.512328 0 1 9.007202,12.893786 12.383224,7.6363017 32.512328 0 1 -13.063286,2.296501 12.383224,7.6363017 32.512328 0 1 -9.007202,-12.894303 12.383224,7.6363017 32.512328 0 1 6.093685,-3.958414 z m 0,30.548523 a 12.383224,7.6363017 32.512328 0 1 0.681612,0.0031 12.383224,7.6363017 32.512328 0 1 6.287989,1.659328 12.383224,7.6363017 32.512328 0 1 9.007202,12.89379 12.383224,7.6363017 32.512328 0 1 -13.063286,2.2965 12.383224,7.6363017 32.512328 0 1 -9.007202,-12.8943 12.383224,7.6363017 32.512328 0 1 6.093685,-3.958418 z m 17.935856,25.460458 a 12.383224,7.6363017 32.512328 0 1 6.287989,1.65882 12.383224,7.6363017 32.512328 0 1 9.007203,12.8943 12.383224,7.6363017 32.512328 0 1 -13.063287,2.29598 12.383224,7.6363017 32.512328 0 1 -9.007202,-12.89378 12.383224,7.6363017 32.512328 0 1 6.775297,-3.95532 z" /></g></svg>
