<?xml version="1.0" encoding="UTF-8" standalone="no"?>
<!-- Created with Inkscape (http://www.inkscape.org/) -->

<svg
   width="100.00005mm"
   height="100.02715mm"
   viewBox="0 0 100.00005 100.02715"
   version="1.1"
   id="svg5"
   xml:space="preserve"
   xmlns="http://www.w3.org/2000/svg"
   xmlns:svg="http://www.w3.org/2000/svg"><defs
     id="defs2" /><g
     id="layer1"
     transform="translate(-53.177116,-54.308315)"><path
       id="rect2030"
       style="fill:#ffffff;fill-opacity:1;stroke:none;stroke-width:6.20001;stroke-linecap:round;stroke-linejoin:round;stroke-miterlimit:2000;stroke-dashoffset:9.44882;stroke-opacity:1"
       d="m 79.700953,56.603722 c -3.060542,-3.060543 -7.988619,-3.060543 -11.049162,0 l -7.080693,7.080693 -0.04632,-0.04547 c 0,0 -0.170597,0.195641 -0.381592,0.473379 l -1.313049,1.313048 -0.04632,-0.04547 c 0,0 -0.170595,0.19564 -0.38159,0.473378 l -3.184039,3.184039 c -0.311392,0.311391 -0.58952,0.642706 -0.837548,0.988824 l -0.122806,-0.120257 c 0,0 -0.567121,0.635827 -0.925508,1.294352 -0.35839,0.658527 -0.712066,1.552205 -0.929332,2.670715 -0.434539,2.23703 -0.320964,5.322756 1.043636,9.408068 2.729209,8.17061 10.330822,20.542009 29.824501,40.035679 19.493669,19.49366 31.840059,27.07201 39.993609,29.77647 4.07677,1.35225 7.15759,1.45436 9.39107,1.00371 1.11674,-0.22533 2.00807,-0.5871 2.66391,-0.95228 0.65584,-0.3652 1.28671,-0.94252 1.28671,-0.94252 L 137.49,152.08365 c 0.33511,-0.24257 0.65594,-0.514 0.95822,-0.81629 l 3.17597,-3.17597 c 0.29467,-0.22679 0.50652,-0.41559 0.50652,-0.41559 l -0.0455,-0.0455 1.27989,-1.27989 c 0.29467,-0.2268 0.50653,-0.4156 0.50653,-0.4156 l -0.0455,-0.0455 7.05563,-7.05563 c 3.06054,-3.06054 3.06054,-7.98862 -2e-5,-11.04916 l -12.43359,-12.4336 c -3.06054,-3.06054 -7.9882,-3.06012 -11.04873,4.2e-4 l -12.43361,12.4336 c -0.29006,0.29007 -0.55232,0.59701 -0.78739,0.91744 -5.21163,-4.11764 -11.35892,-9.56823 -18.542895,-16.7522 C 88.405254,104.7199 82.928599,98.537612 78.79577,93.29849 c 0.315959,-0.232754 0.618357,-0.492576 0.904687,-0.778906 L 92.134129,80.086059 c 3.060541,-3.060542 3.060967,-7.988195 4.24e-4,-11.048737 z" /></g></svg>
